# xmcd
#
# Track frame offsets: 
#        150
#        14085
#        28585
#        45514
#        60647
#        76085
#        92535
#        109110
#        124460
#        140572
#        158572
#        173935
#        190247
#        206835
#        223834
#        238372
#        252109
#        268060
#        285472
#        300902
#        313752
#        328845
#
# Disc length: 4627 seconds
#
# Revision: 2
# Processed by: cddbd v1.4PL0 Copyright (c) Steve Scherf et al.
# Submitted via: ExactAudioCopy v0.90b3
#
DISCID=42121116
DTITLE=Alabama - Legendary Country Singers (Time Life Music)
DYEAR=1900
DGENRE=Country
TTITLE0=Tennesse River
TTITLE1=Old Flame
TTITLE2=Take Me Down
TTITLE3=Love In The First Degree
TTITLE4=Feels So Right
TTITLE5=When We Make Love
TTITLE6=Mountain Music
TTITLE7=Forty Hour Week (For A Livin')
TTITLE8=Fallin' Again
TTITLE9=Lady Down On Love
TTITLE10=If You're Gonna Play In Texas (You Gotta Have A Fiddle In The
TTITLE10=Band)
TTITLE11=She And I
TTITLE12=Can't Keep A Good Man Down
TTITLE13=Roll On (Eighteen Wheeler)
TTITLE14=Song Of The South
TTITLE15=High Cotton
TTITLE16=Jukebox In My Mind
TTITLE17=Pass It On Down
TTITLE18=Down Home
TTITLE19=I'm In A Hurry (And Don't Know Why)
TTITLE20=Reckless
TTITLE21=My Home's In Alabama
EXTD=
EXTT0=Alabama
EXTT1=Alabama
EXTT2=Alabama
EXTT3=Alabama
EXTT4=Alabama
EXTT5=Alabama
EXTT6=Alabama
EXTT7=Alabama
EXTT8=Alabama
EXTT9=Alabama
EXTT10=Alabama
EXTT11=Alabama
EXTT12=Alabama
EXTT13=Alabama
EXTT14=Alabama
EXTT15=Alabama
EXTT16=Alabama
EXTT17=Alabama
EXTT18=Alabama
EXTT19=Alabama
EXTT20=Alabama
EXTT21=Alabama
PLAYORDER=
